<svg xmlns="http://www.w3.org/2000/svg" viewBox="0 0 283.37 283.37"><defs><style>.cls-1{fill:#f97316;}.cls-2{fill:#fff;}</style></defs><g id="Layer_2" data-name="Layer 2"><g id="Layer_1-2" data-name="Layer 1"><rect class="cls-1" width="283.37" height="283.37" rx="28.19"/><path class="cls-2" d="M141.69,86.39a21.51,21.51,0,1,0-21.51-21.51A21.53,21.53,0,0,0,141.69,86.39Z"/><path class="cls-2" d="M209.28,86.69l-.18,0-.16.05-1.15.34C200.64,89.23,166,99,141.52,99c-22.71,0-54.25-8.45-64.35-11.32a27.44,27.44,0,0,0-3.07-1C66.8,84.78,61.81,92.19,61.81,99s6,9.91,12.12,12.2v.11l36.57,11.42c3.73,1.43,4.73,2.89,5.22,4.16,1.58,4.07.32,12.12-.13,14.93l-2.23,17.28L101,226.73c0,.18-.07.37-.1.56l-.09.49C99.92,234,104.47,240,113.1,240c7.52,0,10.84-5.2,12.28-12.27,0,0,10.76-60.51,16.13-60.51S158,227.73,158,227.73c1.44,7.07,4.76,12.27,12.29,12.27,8.64,0,13.2-6,12.28-12.27-.08-.53-.17-1-.29-1.56l-12.53-67.1-2.22-17.28c-1.61-10.06-.32-13.39.12-14.17l0-.06c.42-.77,2.31-2.49,6.71-4.14l34.29-12a4.48,4.48,0,0,0,.62-.2c6.15-2.3,12.29-5.49,12.29-12.26S216.57,84.78,209.28,86.69Z"/></g></g></svg>