<svg xmlns="http://www.w3.org/2000/svg" viewBox="0 0 332.61 161.71"><defs><style>.cls-1{fill:#f97316;}</style></defs><g id="Layer_2" data-name="Layer 2"><g id="Layer_1-2" data-name="Layer 1"><path class="cls-1" d="M7.74,87.2a24.46,24.46,0,0,0,8.09,5.43,26.23,26.23,0,0,0,10.28,2,26.23,26.23,0,0,0,10.28-2,24.67,24.67,0,0,0,8.09-5.43A24.2,24.2,0,0,0,49.76,79a27.84,27.84,0,0,0,1.85-10.2V2.7a3.24,3.24,0,0,0-.15-1A2.43,2.43,0,0,0,50.41.38,2.91,2.91,0,0,0,48.91,0H46a3.24,3.24,0,0,0-1,.15A2.43,2.43,0,0,0,43.69,1.2a2.91,2.91,0,0,0-.38,1.5V68.8a20,20,0,0,1-1.25,7.07,16.68,16.68,0,0,1-16,10.93,17.46,17.46,0,0,1-7-1.38,15.83,15.83,0,0,1-5.4-3.79,17.43,17.43,0,0,1-3.5-5.71A19.88,19.88,0,0,1,8.91,68.8V62.6a3.24,3.24,0,0,0-.15-1,2.43,2.43,0,0,0-1-1.32,2.91,2.91,0,0,0-1.5-.38H3.31a3.24,3.24,0,0,0-1,.15A2.43,2.43,0,0,0,1,61.1a2.91,2.91,0,0,0-.38,1.5v6.2A27.67,27.67,0,0,0,2.46,79,24.2,24.2,0,0,0,7.74,87.2Z"/><path class="cls-1" d="M66.77,69.08a22.38,22.38,0,0,0,7.39,5.14h0a22.87,22.87,0,0,0,9.3,1.88H95.19a20.2,20.2,0,0,1-1.69,5.23A13.54,13.54,0,0,1,89.77,86,15.84,15.84,0,0,1,84,88.83a30.74,30.74,0,0,1-8.16,1c-.5,0-1,0-1.34,0h0c-.48,0-1,0-1.45,0h-.2a2.76,2.76,0,0,0-1,.16,2.3,2.3,0,0,0-1.23,1.05,2.82,2.82,0,0,0-.33,1.4v2.3a3.57,3.57,0,0,0,.14,1,2.46,2.46,0,0,0,1,1.36,2.7,2.7,0,0,0,1.4.42,11.42,11.42,0,0,0,1.55.11H76a41.32,41.32,0,0,0,11.37-1.41,22.36,22.36,0,0,0,8.45-4.35,20.91,20.91,0,0,0,5.43-7.21,29.72,29.72,0,0,0,2.35-8.43h153.6a24.13,24.13,0,0,0,9.11-1.71,21.37,21.37,0,0,0,7.31-4.84,22.23,22.23,0,0,0,4.77-7.39,25.09,25.09,0,0,0,1.71-9.36,24.36,24.36,0,0,0-2.3-10.7,21.55,21.55,0,0,0-6.39-7.89h0A8.39,8.39,0,0,0,268.93,33h0a8.86,8.86,0,0,0-2.87-.48h-49.3V27.7a3.24,3.24,0,0,0-.15-1,2.43,2.43,0,0,0-1.05-1.32,2.94,2.94,0,0,0-1.5-.38h-2.9a3.2,3.2,0,0,0-1,.15,2.43,2.43,0,0,0-1.32,1.05,2.82,2.82,0,0,0-.38,1.5V68.4H104.06V59.05l.1-.2V41.7a10.07,10.07,0,0,0-.41-2.82h0a9.16,9.16,0,0,0-1-2.37v0l0,0a22.38,22.38,0,0,0-8.08-7.28,24.06,24.06,0,0,0-20.36-.8,22.73,22.73,0,0,0-7.44,5.19,23.52,23.52,0,0,0-4.91,7.84,27.2,27.2,0,0,0-1.75,9.89,27.59,27.59,0,0,0,1.75,9.94A23.28,23.28,0,0,0,66.77,69.08ZM83.56,34.2a14,14,0,0,1,7.28,1.89,15,15,0,0,1,5,4.88V48.4h-.1v20H83.56a14.14,14.14,0,0,1-6-1.26h0a14.49,14.49,0,0,1-4.75-3.49h0a16.48,16.48,0,0,1-3.15-5.41,20.21,20.21,0,0,1-1.16-6.94,20,20,0,0,1,1.16-7A16.1,16.1,0,0,1,72.78,39,14.2,14.2,0,0,1,83.56,34.2Zm182.55,6a14.31,14.31,0,0,1,4.05,5.1,17.1,17.1,0,0,1,1.6,7.5,17.58,17.58,0,0,1-1.1,6.32,14.33,14.33,0,0,1-3,4.89A13.9,13.9,0,0,1,263,67.22a14.63,14.63,0,0,1-5.9,1.18h-40.3V40.2Z"/><path class="cls-1" d="M325.91,90.22a23.29,23.29,0,0,0,5-8.94,39.61,39.61,0,0,0,1.65-12V41.7a10.07,10.07,0,0,0-.41-2.82h0a9.51,9.51,0,0,0-1-2.37l0,0v0a22.38,22.38,0,0,0-8.08-7.28,24.06,24.06,0,0,0-20.36-.8,22.63,22.63,0,0,0-7.44,5.19,23.52,23.52,0,0,0-4.91,7.84,27,27,0,0,0-1.75,9.89,27.37,27.37,0,0,0,1.75,9.94,23.28,23.28,0,0,0,4.86,7.84,22.38,22.38,0,0,0,7.39,5.14,22.87,22.87,0,0,0,9.3,1.88h11.83a20.2,20.2,0,0,1-1.69,5.23,13.65,13.65,0,0,1-3.73,4.7,15.92,15.92,0,0,1-5.75,2.8,30.79,30.79,0,0,1-8.16,1c-.5,0-1,0-1.34,0h0c-.47,0-.95,0-1.45,0h-.19a2.76,2.76,0,0,0-1,.16,2.3,2.3,0,0,0-1.23,1.05,2.84,2.84,0,0,0-.33,1.4v2.3a3.24,3.24,0,0,0,.14,1,2.45,2.45,0,0,0,1,1.36,2.67,2.67,0,0,0,1.4.42,11.42,11.42,0,0,0,1.55.11h1.5a39.59,39.59,0,0,0,12.55-1.78A20.78,20.78,0,0,0,325.91,90.22ZM312,34.2a14,14,0,0,1,7.28,1.89,15,15,0,0,1,5,4.88V68.4H312a14.22,14.22,0,0,1-6-1.26,14.43,14.43,0,0,1-4.76-3.49,16.31,16.31,0,0,1-3.15-5.41,21.55,21.55,0,0,1,0-13.92A16.44,16.44,0,0,1,301.22,39,14.24,14.24,0,0,1,312,34.2Z"/><polygon class="cls-1" points="58.7 147.57 44.37 107.11 37.15 107.11 22.82 147.59 8.68 107.11 0 107.11 18.54 160.41 26.67 160.41 40.72 120.61 54.85 160.41 62.98 160.41 63.33 159.41 81.62 107.11 72.74 107.11 58.7 147.57"/><path class="cls-1" d="M125.81,139.31a13.52,13.52,0,0,1-1.94,7.13,14.72,14.72,0,0,1-5.23,5.23,14.07,14.07,0,0,1-14.26,0,14.72,14.72,0,0,1-5.23-5.23,13.52,13.52,0,0,1-1.94-7.13v-31.9h-8.4v33.3A21,21,0,0,0,99.2,158.9a21.11,21.11,0,0,0,21.92-.53,21.27,21.27,0,0,0,4.79-4.18v6.22h8.4v-53h-8.5Z"/><path class="cls-1" d="M184.69,136.37c-2.32-2.38-5.88-4-10.63-5.12h0l-10.3-2.5h0c-3.48-.82-5.84-1.9-7-3a4.78,4.78,0,0,1-1.3-1.81,6.3,6.3,0,0,1-.45-2.47,7.27,7.27,0,0,1,.72-3.33,6.61,6.61,0,0,1,2.15-2.45c2-1.41,5-2.22,9.13-2.22a22,22,0,0,1,8.83,1.63,15,15,0,0,1,6.07,4.78L183,121.4l4.84-5.67-.61-.94a18.09,18.09,0,0,0-8.16-6.7,29.79,29.79,0,0,0-12.1-2.28c-6.14,0-11.14,1.33-14.86,4.16a14,14,0,0,0-4.23,5.07,15,15,0,0,0-1.41,6.57,13.89,13.89,0,0,0,.86,5,11.57,11.57,0,0,0,2.62,4.07c2.33,2.36,5.81,4,10.37,5.11h0l10.19,2.5h0a27.34,27.34,0,0,1,4.52,1.42,9.73,9.73,0,0,1,2.71,1.63,5.24,5.24,0,0,1,1.35,1.89,6.37,6.37,0,0,1,.46,2.5,7.37,7.37,0,0,1-.72,3.31,7.51,7.51,0,0,1-2.2,2.6c-1.95,1.52-5,2.39-9.18,2.39a24.45,24.45,0,0,1-10.42-2.16,16,16,0,0,1-6.92-5.76l-1.11-1.71-4.89,5.9.57.92a20.61,20.61,0,0,0,9.14,7.72l.63-1.36-.63,1.36a32,32,0,0,0,13.63,2.79,31.18,31.18,0,0,0,8.48-1.06,18.38,18.38,0,0,0,6.56-3.27,14.39,14.39,0,0,0,4.17-5.24,15.8,15.8,0,0,0,1.39-6.73,13.93,13.93,0,0,0-.85-5A11.63,11.63,0,0,0,184.69,136.37Z"/><path class="cls-1" d="M237.05,109.76a29.54,29.54,0,0,0-28.08,0,25.64,25.64,0,0,0-9.82,9.81,28.19,28.19,0,0,0-3.54,14.14A29.77,29.77,0,0,0,199,148.12a24.76,24.76,0,0,0,9.73,9.94,28.2,28.2,0,0,0,14.14,3.55,27.22,27.22,0,0,0,14-3.66,26.25,26.25,0,0,0,9.8-10,30.53,30.53,0,0,0,.1-28.35A24.9,24.9,0,0,0,237.05,109.76Zm-4.46,41.41a18.58,18.58,0,0,1-9.68,2.54,18.84,18.84,0,0,1-9.74-2.49,17,17,0,0,1-6.58-7,22.16,22.16,0,0,1-2.38-10.41,21.78,21.78,0,0,1,2.42-10.4,17.41,17.41,0,0,1,6.64-7,18.84,18.84,0,0,1,9.74-2.49,18,18,0,0,1,16.28,9.66,23,23,0,0,1,0,20.54,17.63,17.63,0,0,1-6.68,7.06l.76,1.29Z"/><path class="cls-1" d="M299.85,109.76a29.54,29.54,0,0,0-28.08,0,25.64,25.64,0,0,0-9.82,9.81,28.09,28.09,0,0,0-3.54,14.14,29.77,29.77,0,0,0,3.43,14.41,24.76,24.76,0,0,0,9.73,9.94,28.2,28.2,0,0,0,14.14,3.55,27.16,27.16,0,0,0,14-3.66,26.2,26.2,0,0,0,9.81-10,30.53,30.53,0,0,0,.1-28.35A24.9,24.9,0,0,0,299.85,109.76Zm-4.46,41.41a18.58,18.58,0,0,1-9.68,2.54,18.84,18.84,0,0,1-9.74-2.49,17,17,0,0,1-6.58-7A22.16,22.16,0,0,1,267,133.81a21.78,21.78,0,0,1,2.42-10.4,17.41,17.41,0,0,1,6.64-7,18.84,18.84,0,0,1,9.74-2.49,18,18,0,0,1,16.28,9.66,23,23,0,0,1,0,20.54,17.58,17.58,0,0,1-6.69,7.06l.77,1.29Z"/><polygon class="cls-1" points="324.21 107.41 324.21 108.91 324.21 160.41 332.61 160.41 332.61 107.41 324.21 107.41"/></g></g></svg>